<svg id="Layer_1" data-name="Layer 1" xmlns="http://www.w3.org/2000/svg" viewBox="0 0 29.77 29.79"><defs><style>.cls-1{font-size:3px;fill:#231f20;font-family:MyriadPro-Regular, Myriad Pro;}</style></defs><text class="cls-1" transform="translate(5.11 7.07) rotate(-45.68)">W</text><text class="cls-1" transform="matrix(0.8, -0.61, 0.61, 0.8, 6.78, 5.39)">e</text><text class="cls-1" transform="matrix(0.84, -0.54, 0.54, 0.84, 7.94, 4.53)">l</text><text class="cls-1" transform="matrix(0.88, -0.47, 0.47, 0.88, 8.5, 4.16)">c</text><text class="cls-1" transform="translate(9.61 3.55) rotate(-21.52)">o</text><text class="cls-1" transform="translate(11.03 2.95) rotate(-12.46)">m</text><text class="cls-1" transform="translate(13.41 2.45) rotate(-3.62)">e</text><text class="cls-1" transform="translate(14.85 2.38) rotate(0.93)"> </text><text class="cls-1" transform="matrix(0.99, 0.1, -0.1, 0.99, 15.44, 2.36)">b</text><text class="cls-1" transform="translate(17.06 2.53) rotate(12.82)">a</text><text class="cls-1" transform="translate(18.4 2.83) rotate(19.76)">b</text><text class="cls-1" transform="translate(19.92 3.38) rotate(26.51)">y</text><text class="cls-1" transform="matrix(0.86, 0.51, -0.51, 0.86, 21.13, 3.99)"> </text><text class="cls-1" transform="translate(21.65 4.28) rotate(35.41)">y</text><text class="cls-1" transform="matrix(0.74, 0.67, -0.67, 0.74, 22.73, 5.04)">o</text><text class="cls-1" transform="matrix(0.65, 0.76, -0.76, 0.65, 23.91, 6.09)">u</text><text class="cls-1" transform="matrix(0.59, 0.81, -0.81, 0.59, 24.94, 7.31)"> </text><text class="cls-1" transform="translate(25.3 7.77) rotate(59.06)">h</text><text class="cls-1" transform="matrix(0.41, 0.91, -0.91, 0.41, 26.12, 9.15)">a</text><text class="cls-1" transform="translate(26.68 10.39) rotate(72.19)">v</text><text class="cls-1" transform="translate(27.1 11.65) rotate(78.44)">e</text><text class="cls-1" transform="translate(27.37 13.08) rotate(83.11)"> </text><text class="cls-1" transform="translate(27.46 13.67) rotate(87.64)">a</text><text class="cls-1" transform="translate(27.51 15.08) rotate(92.18)"> </text><text class="cls-1" transform="translate(27.48 15.69) rotate(95.07)">l</text><text class="cls-1" transform="translate(27.45 16.32) rotate(100.13)">o</text><text class="cls-1" transform="translate(27.15 17.91) rotate(106.03)">t</text><text class="cls-1" transform="translate(26.89 18.82) rotate(109.58)"> </text><text class="cls-1" transform="matrix(-0.42, 0.91, -0.91, -0.42, 26.71, 19.38)">o</text><text class="cls-1" transform="matrix(-0.5, 0.87, -0.87, -0.5, 26.04, 20.81)">f</text><text class="cls-1" transform="translate(25.62 21.53) rotate(123.35)"> </text><text class="cls-1" transform="matrix(-0.62, 0.78, -0.78, -0.62, 25.32, 22.03)">n</text><text class="cls-1" transform="translate(24.31 23.31) rotate(135.35)">e</text><text class="cls-1" transform="matrix(-0.77, 0.63, -0.63, -0.77, 23.29, 24.3)">r</text><text class="cls-1" transform="translate(22.51 24.95) rotate(146.31)">v</text><text class="cls-1" transform="translate(21.41 25.7) rotate(152.53)">e</text><text class="cls-1" transform="translate(20.1 26.36) rotate(157.25)"> </text><text class="cls-1" transform="matrix(-0.95, 0.32, -0.32, -0.95, 19.57, 26.6)">c</text><text class="cls-1" transform="translate(18.38 27.01) rotate(168.08)">o</text><text class="cls-1" transform="matrix(-1, 0.05, -0.05, -1, 16.86, 27.37)">m</text><text class="cls-1" transform="translate(14.43 27.44) rotate(-176.02)">i</text><text class="cls-1" transform="translate(13.78 27.42) rotate(-170.86)">n</text><text class="cls-1" transform="translate(12.21 27.17) rotate(-163.52)">g</text><text class="cls-1" transform="matrix(-0.93, -0.37, 0.37, -0.93, 10.67, 26.7)"> </text><text class="cls-1" transform="translate(10.11 26.5) rotate(-153.41)">h</text><text class="cls-1" transform="translate(8.68 25.79) rotate(-146.47)">e</text><text class="cls-1" transform="translate(7.48 24.98) rotate(-141.07)">r</text><text class="cls-1" transform="matrix(-0.72, -0.7, 0.7, -0.72, 6.78, 24.44)">e</text><text class="cls-1" transform="translate(5.75 23.42) rotate(-131.24)"> </text><text class="cls-1" transform="translate(5.35 22.98) rotate(-126.79)">y</text><text class="cls-1" transform="translate(4.55 21.93) rotate(-120.25)">o</text><text class="cls-1" transform="translate(3.74 20.56) rotate(-112.93)">u</text><text class="cls-1" transform="translate(3.14 19.09) rotate(-107.99)"> </text><text class="cls-1" transform="translate(2.94 18.51) rotate(-103.89)">s</text><text class="cls-1" transform="matrix(-0.13, -0.99, 0.99, -0.13, 2.66, 17.44)">h</text><text class="cls-1" transform="translate(2.45 15.84) rotate(-90.93)">a</text><text class="cls-1" transform="translate(2.44 14.46) rotate(-86.38)">l</text><text class="cls-1" transform="translate(2.48 13.79) rotate(-83.29)">l</text><text class="cls-1" transform="matrix(0.17, -0.99, 0.99, 0.17, 2.56, 13.11)"> </text><text class="cls-1" transform="matrix(0.26, -0.97, 0.97, 0.26, 2.63, 12.53)">d</text><text class="cls-1" transform="translate(3.07 10.94) rotate(-69.89)">i</text><text class="cls-1" transform="translate(3.27 10.33) rotate(-65.15)">e</text><text class="cls-1" transform="translate(3.9 9.02) rotate(-60.45)"> </text><text class="cls-1" transform="translate(4.2 8.48) rotate(-56.99)">-</text></svg>