<svg id="Layer_1" data-name="Layer 1" xmlns="http://www.w3.org/2000/svg" viewBox="0 0 403.75 170.91"><defs><style>.cls-1{fill:#fff;}</style></defs><title>logo_acciona</title><path class="cls-1" d="M135.69,120a13,13,0,0,1-8.81,3.11c-5.18,0-8-2.8-8-6.84s3-6.43,9.74-6.64l7.05-.2ZM149.27,132c-.72-2.28-.94-5.91-.94-13V99.62c0-12.86-7.36-17.83-19.49-17.83-6.52,0-12.64,1-19.18,5.39l4,7.78a24,24,0,0,1,12.64-3.63c5.19,0,9.33,2.38,9.33,8.29v1.24l-8.71.31c-12.54.41-20.53,5.9-20.53,16.06,0,9.64,7.05,15.76,16.07,15.76a20.29,20.29,0,0,0,14.2-5.39L138.8,132Z" transform="translate(-15.94 -17.08)"/><path class="cls-1" d="M179.84,133c-16,0-24.15-11.5-24.15-25.29,0-14.92,10.78-25.91,25.39-25.91,6.63,0,11.19,1.66,14,3.42l-.21,10.15a19.39,19.39,0,0,0-12.34-4c-8.39,0-14.41,6.63-14.41,15.75,0,8.4,4.57,15.86,14.31,15.86A22.16,22.16,0,0,0,194,119.52l3.11,8.19A32.62,32.62,0,0,1,179.84,133Z" transform="translate(-15.94 -17.08)"/><path class="cls-1" d="M224,133c-16,0-24.15-11.5-24.15-25.29,0-14.92,10.78-25.91,25.38-25.91,6.64,0,11.2,1.66,14,3.42L239,95.37a19.4,19.4,0,0,0-12.34-4c-8.39,0-14.41,6.63-14.41,15.75,0,8.4,4.56,15.86,14.3,15.86a22.17,22.17,0,0,0,11.62-3.42l3.11,8.19A32.62,32.62,0,0,1,224,133Z" transform="translate(-15.94 -17.08)"/><path class="cls-1" d="M255.13,75.37a7.52,7.52,0,1,1,7.77-7.57A7.65,7.65,0,0,1,255.13,75.37ZM248.91,132v-49h12.44v49Z" transform="translate(-15.94 -17.08)"/><path class="cls-1" d="M305.26,107.4c0,9.22-3.94,16-11.71,16-7.56,0-12-6.43-12-16,0-9.13,3.84-15.75,11.71-15.75C300.91,91.64,305.26,98,305.26,107.4Zm12.75-.1c0-7.47-2.28-13.89-6.53-18.45s-10.47-7-18-7A24,24,0,0,0,276,88.74c-4.56,4.66-7.15,11.3-7.15,19,0,7.87,2.7,14.61,7.56,19.18,4.25,3.94,10.06,6.12,16.9,6.12,7.36,0,13.37-2.59,17.72-7C315.62,121.39,318,114.76,318,107.3Z" transform="translate(-15.94 -17.08)"/><path class="cls-1" d="M357.5,132V103.15c0-5.08-.94-10.68-7.27-10.68-4.35,0-8.6,2.29-12.43,5.19V132H325.37v-49h10.57l1.35,5.29c5.28-3.94,10.57-6.42,17.21-6.42,7.46,0,15.45,4.45,15.45,17.62V132Z" transform="translate(-15.94 -17.08)"/><path class="cls-1" d="M406.11,120a12.93,12.93,0,0,1-8.81,3.11c-5.18,0-8-2.8-8-6.84s3-6.43,9.75-6.64l7-.2ZM419.69,132c-.72-2.28-.93-5.91-.93-13V99.62c0-12.86-7.36-17.83-19.49-17.83-6.54,0-12.65,1-19.18,5.39l4,7.78a24.06,24.06,0,0,1,12.65-3.63c5.18,0,9.33,2.38,9.33,8.29v1.24l-8.71.31c-12.54.41-20.52,5.9-20.52,16.06,0,9.64,7,15.76,16.06,15.76a20.32,20.32,0,0,0,14.21-5.39l2.07,4.36Z" transform="translate(-15.94 -17.08)"/><path class="cls-1" d="M85.24,109.21c-.9-3.65-1.77-7.26-2.55-10.87a151.15,151.15,0,0,1-3.14-19.63c-.15-1.82-.23-3.55-.3-5.29-.12-2.76-.16-5.44-.11-8A118.71,118.71,0,0,1,80,53c.63-4.91,1.66-9.09,2.44-12.66-.79.62-1.57,1.22-2.36,1.78a101.78,101.78,0,0,0-3,10.93c-.68,3.12-1.32,6.69-1.82,10.61a61.71,61.71,0,0,1-10.54-5.63l.1,5.11a85.21,85.21,0,0,0,9.77,7,140.75,140.75,0,0,0-.2,19.33c.13,2.22.33,4.41.54,6.6A72.22,72.22,0,0,1,54.1,86.87L54.2,92a88.44,88.44,0,0,0,21.91,13.23c1,7.36,2.37,14.66,3.59,22.05C70,126,57,122.45,46.87,115.58l.1,5.11c10.73,8.92,24,15.09,34.35,17.16,2.11,15.38,3,31.56-.76,50.14l12.05-7.06C97.29,154.6,90.71,131.41,85.24,109.21Z" transform="translate(-15.94 -17.08)"/><path class="cls-1" d="M72,159.32C56.45,159,27.09,143.81,17,122.53l-1.11-2.35,1.51-2.12a42.56,42.56,0,0,0,7.76-24.82,54.72,54.72,0,0,0-1.85-12.76s-.53-2.16-.75-3l2.6-1.74c6.59-4.38,17.9-14.93,19.55-36.34,0,0,.19-2.51.28-3.53l3.5-.52A57.43,57.43,0,0,0,79.6,20l3-3c.94.9,3,3,3,3a57.42,57.42,0,0,0,31.07,15.29l3.5.52c0,1,0,3.54,0,3.54h0c.13,16.05,7.21,22.59,10,24.55l-2.47,2.14c-6.83-2.72-14.95-8.79-16-22.54A67.6,67.6,0,0,1,83.26,29.66l-.59-.75-.6.75A66.45,66.45,0,0,1,53.78,43.38l-.64.14-.09.65C50.35,63.83,40.68,75.05,33,81l-.46.35.11.58a57.65,57.65,0,0,1,1.41,11.3,50.86,50.86,0,0,1-7.54,26.95l-.3.47.29.49c-.71,15.37,33.33,35,45.12,35.5Z" transform="translate(-15.94 -17.08)"/></svg>