<?xml version="1.0" encoding="utf-8"?>
<!-- Generator: Adobe Illustrator 23.0.0, SVG Export Plug-In . SVG Version: 6.00 Build 0)  -->
<svg version="1.1"
	 id="svg3016" xmlns:cc="http://creativecommons.org/ns#" xmlns:dc="http://purl.org/dc/elements/1.1/" xmlns:rdf="http://www.w3.org/1999/02/22-rdf-syntax-ns#" xmlns:svg="http://www.w3.org/2000/svg"
	 xmlns="http://www.w3.org/2000/svg" xmlns:xlink="http://www.w3.org/1999/xlink" x="0px" y="0px" viewBox="0 0 414 77"
	 style="enable-background:new 0 0 414 77;" xml:space="preserve">
<style type="text/css">
	.st0{fill:#FFFFFF;}
	.st1{font-family:'Impact';}
	.st2{font-size:11.5019px;}
</style>
<g>
	<path id="path3019" class="st0" d="M10.8,3.8c7.2-3.5,15.7-3.6,23.5-2c5.9,1.4,12.1,4.7,14.3,10.7c2.2,6.9,1.7,14.2,1.8,21.4
		c-7,0-14.1,0-21.1,0C29.1,27.9,29.6,21.9,29,16c0.1-4.1-7.1-4.1-7,0c-0.8,9.3-0.2,18.6-0.4,27.9c0.2,5.9-0.4,12,0.5,17.8
		c0.6,2.4,3.5,2.5,5.4,1.7c1.4-1,1.5-2.9,1.6-4.5c0.2-4.4,0-8.8,0.1-13.3c7.1,0,14.1,0,21.2,0c-0.2,6.7,0.4,13.9-2.4,20.1
		c-4.7,7.8-14.4,10.7-23,10.4C17.4,76.2,8.7,74.5,4,68c-3.4-5.3-3.3-11.9-3.5-17.9c0.1-10.7-0.4-21.4,0.4-32.1
		C1.1,11.8,5.4,6.3,10.8,3.8z"/>
	<path id="path3021" class="st0" d="M61.8,2.1c10.2-0.1,20.5-0.1,30.7,0c3.9,24.3,8.1,48.5,12,72.7c-6.6,0-13.2,0-19.8,0
		c-0.6-4.5-1-9.1-1.7-13.6c-2.3,0-4.7,0-7.1,0c0.4-4.1,0.9-8.1,1.3-12.2c1.4,0,2.9,0,4.3,0c-1.3-10.4-2.3-20.8-3.9-31.2
		c-2.1,19-4.5,38-6.8,57c-6.6,0-13.2,0-19.8,0C54.6,50.6,58.3,26.3,61.8,2.1z"/>
	<path id="path3023" class="st0" d="M108.1,2c7,0,14,0,21,0c0,19.4,0,38.8,0,58.2c4.3,0,8.6,0,12.9,0c0,4.9,0,9.7,0,14.6
		c-11.3,0-22.6,0-33.9,0C108.1,50.5,108.1,26.3,108.1,2L108.1,2z"/>
	<path id="path3025" class="st0" d="M147.1,2c7,0,14.1,0,21.1,0c0,19.4,0,38.8,0,58.2c4.3,0,8.5,0,12.8,0c0,4.9,0,9.7,0,14.6
		c-11.3,0-22.6,0-33.9,0C147,50.5,147.1,26.3,147.1,2z"/>
	<path id="path3027" class="st0" d="M207.1,2c9.3-0.1,18.6,0,27.9,0.4c4.9,0.3,10,0.7,14.4,3.2c3.9,2.4,6.3,6.8,6.4,11.4
		c0.6,12.7,0.3,25.4,0.3,38c-0.3,5.2,0.3,11.3-3.5,15.5c-4.2,3.9-10.3,4.1-15.7,4.3c-9.9,0.1-19.9,0-29.8,0
		C207.1,50.5,207.1,26.3,207.1,2 M228.2,14.5c0,16,0,32,0,47.9c2-0.4,5.1,0,6-2.4c1.2-5.3,0.6-10.7,0.8-16.1
		c-0.2-8.8,0.4-17.6-0.3-26.3C234.3,14.5,230.6,14.6,228.2,14.5L228.2,14.5z"/>
	<path id="path3029" class="st0" d="M261.4,2c7,0,14,0,21,0c0,17.7,0,35.4,0,53c0,2.3,0,4.7,0.4,7c0.3,2.7,5,2.5,5.2-0.1
		c0.5-2.3,0.4-4.6,0.5-6.9c0-17.7,0-35.3,0-53c7,0,14,0,21,0c0,17,0.1,34,0,51c-0.2,4.7,0.3,9.8-2.5,13.9c-3.3,5.6-9.7,8.4-16,9
		c-7.9,0.9-16.5,0-23-4.8c-4.1-2.9-6.3-8-6.3-13C261.1,39.4,261.5,20.7,261.4,2L261.4,2z"/>
	<path id="path3031" class="st0" d="M313.9,2c15.4,0,30.8,0,46.2,0c0,4.9,0,9.7,0,14.6c-4.2,0-8.4,0-12.5,0c0,19.4,0,38.8,0,58.2
		c-7.1,0-14.1,0-21.2,0c0-19.4,0-38.8,0-58.2c-4.2,0-8.3,0-12.5,0C313.9,11.7,314,6.9,313.9,2z"/>
	<path id="path3033" class="st0" d="M364,2c6.5,0.1,13-0.2,19.4,0.1c4,13.1,8.3,26,12.5,39c1,3.2,2.5,6.4,2.4,9.8
		c0,8.1,0,16.1,0,24.2c-6.5,0-13,0-19.5,0c0-7.7,0-15.5,0-23.2c0-1.7-0.1-3.5-0.6-5.2C373.4,31.9,368.7,16.9,364,2z"/>
	<path id="path3035" class="st0" d="M394.3,2c6.4,0,12.9,0,19.3,0c-4.5,13.8-9,27.6-13.6,41.4c-2.9-9.2-6.1-18.3-8.7-27.6
		C391.9,11.1,393.3,6.6,394.3,2z"/>
	<path id="path3037" class="st0" d="M178.5,19.5c3.7-1.6,9.2,0,9.9,4.4c0.4,5.4,0.4,10.8,0,16.2c-1.1,6.2-11.5,6.5-13.1,0.5
		c-0.8-4.8-0.4-9.8-0.4-14.6C174.8,23.3,176,20.5,178.5,19.5 M181.1,22.9c-0.4,6-0.3,11.9-0.1,17.9l1.4-0.5
		c0.6-5.5,0.4-11.1,0.1-16.6C182.1,23.5,181.4,23.1,181.1,22.9L181.1,22.9z"/>
	<path id="path3039" class="st0" d="M190.6,19.4c3.2,0,6.4,0,9.6,0c0,1.6,0,3.3,0,5c-1.3,0-2.6,0-3.9,0c0,1.6,0,3.2,0,4.8
		c1.1,0,2.3,0,3.5,0c0,1.5,0,3,0,4.6c-1.2,0-2.3,0-3.5,0c0,3.5,0,7,0,10.6c-1.9,0-3.8,0-5.6,0C190.6,36.1,190.6,27.7,190.6,19.4
		L190.6,19.4z"/>
</g>
<text transform="matrix(1.0571 0 0 1 401.1758 76.8984)" class="st0 st1 st2">®</text>
</svg>
