<?xml version="1.0" encoding="utf-8"?>
<!-- Generator: Adobe Illustrator 23.0.0, SVG Export Plug-In . SVG Version: 6.00 Build 0)  -->
<svg version="1.1" id="Capa_1" xmlns="http://www.w3.org/2000/svg" xmlns:xlink="http://www.w3.org/1999/xlink" x="0px" y="0px"
	 viewBox="0 0 161.2 22.5" style="enable-background:new 0 0 161.2 22.5;" xml:space="preserve">
<style type="text/css">
	.st0{fill:#FFFFFF;}
</style>
<g>
	<path class="st0" d="M1.2,20.9h1.4c0.8,0,1.3-0.6,1.3-1.4v-0.1l0-0.4V4c0-0.6-0.1-0.9-0.3-1.1C3.5,2.8,3.3,2.7,3,2.6
		C2.9,2.5,2.7,2.5,2.7,2.5H1.2V1.4h17.6l0.4,6.1H18c-0.1-0.4-0.1-0.7-0.2-1c-0.2-1-0.9-2-1.7-2.8c-1.2-1.1-2.3-1.4-4.3-1.4H9.5
		c-0.7,0-0.8,0.2-0.8,1v6.8h1.1c2.8,0,4.2-1.3,4.2-4h1.1v9H14v-0.5c0-1.1-0.4-2.2-1-2.8c-0.5-0.4-2-0.8-3.2-0.8H8.7v8.5
		c0,0.9,0.3,1.2,1,1.2H12c3.4,0,5.6-2,6.1-5.5h1.1l-0.5,6.6H1.2V20.9z"/>
	<path class="st0" d="M19.7,1.5h10.3v1.1h-1.5h0c-0.3,0.1-0.8,0.2-1,0.4c-0.2,0.2-0.3,0.5-0.3,1.1v15.7c0,0.9,0.3,1.2,1,1.2h1.6
		c1.5,0,2.8-0.7,3.8-2.2c0.6-0.9,1.1-1.9,1.4-2.9c0.2-0.7,0.3-1.1,0.4-2h1.2L36.3,22H19.7v-1.1h1.5h0c0.4-0.1,0.8-0.2,0.9-0.4
		c0.3-0.2,0.3-0.5,0.3-1.1V19V4c0-0.6-0.1-0.9-0.3-1.1c-0.1-0.1-0.3-0.2-0.6-0.3c-0.2,0-0.3-0.1-0.4-0.1h-1.4V1.5z"/>
	<path class="st0" d="M85.1,2.5h-0.4h0c-0.5,0.1-0.9,0.2-1.1,0.4c-0.3,0.2-0.3,0.4-0.3,1.1v15.4c0,0.5,0.1,0.9,0.3,1.1
		c0.2,0.1,0.4,0.2,0.6,0.3c0.2,0.1,0.4,0.1,0.4,0.1h1.4V22H75.7v-1.1h1.4h0.1c0.1,0,0.2-0.1,0.3-0.1c0.6-0.2,0.9-0.5,0.9-1v-0.4V3
		l-5.7,19h-2.2L64.9,3.1v16.3c0,0.6,0.1,0.9,0.3,1.1c0.1,0.1,0.3,0.2,0.6,0.3c0.2,0.1,0.3,0.1,0.4,0.1h1.5V22h-7v-1.1H62
		c0.8,0,1.4-0.6,1.4-1.4v0l0-0.5V4c0-0.5-0.1-0.9-0.3-1.1c-0.1-0.1-0.3-0.2-0.6-0.3c-0.2-0.1-0.3-0.1-0.4-0.1h-1.5V1.5h8.8l3.9,13.3
		l4.1-13.3h7.6L85.1,2.5L85.1,2.5z"/>
	<path class="st0" d="M85.7,1.4h9.1v1h-1.5h0c-0.3,0.1-0.8,0.2-0.9,0.4C92.2,3,92.1,3.5,92.1,4v11.9c0,1.2,0,1.8,0.2,2.2
		c0.4,1.2,1.7,1.9,3.6,1.9c3,0,4-1.1,4-4.3V3.9c0-0.9-0.5-1.5-1.3-1.5h-1.4v-1h6v1h-0.3c-0.9,0-1.4,0.6-1.4,1.5v11.6
		c0,1-0.1,2-0.3,2.8c-0.2,1-0.6,1.7-1.1,2.2c-1,1-3.3,1.8-5.6,1.8c-2,0-4.1-0.6-5.4-1.4c-1.3-0.9-1.7-2.1-1.7-4.5V3.9V3.5
		c0-0.2-0.1-0.5-0.3-0.7c-0.1-0.1-0.3-0.2-0.6-0.3c-0.1-0.1-0.3-0.1-0.4-0.1h-0.4L85.7,1.4z"/>
	<path class="st0" d="M102.9,20.9h1.4c0.8,0,1.4-0.6,1.4-1.4v0V19V4c0-0.5-0.1-0.9-0.3-1.1c-0.2-0.1-0.3-0.2-0.6-0.3
		c-0.2-0.1-0.3-0.1-0.4-0.1h-0.7V1.4h6.4l8.7,14.4V4c0-0.5-0.1-0.9-0.3-1.1c-0.1-0.1-0.4-0.2-0.6-0.3c-0.2-0.1-0.4-0.1-0.4-0.1H116
		V1.4h5.9v1.1h-0.4c0,0-0.2,0-0.4,0.1c-0.6,0.1-0.9,0.5-0.9,1l0,0.4v17.9h-3.6l-9.5-15.7v13.2c0,0.6,0.1,0.9,0.4,1.1
		c0.1,0.1,0.4,0.2,0.7,0.3c0.2,0,0.4,0.1,0.4,0.1h1.5v1h-7.2L102.9,20.9L102.9,20.9z"/>
	<path class="st0" d="M121.7,20.9h1.4h0.1c0.4-0.1,0.8-0.2,0.9-0.4c0.3-0.2,0.3-0.5,0.3-1.1v-1.5V4c0-0.6-0.1-0.9-0.3-1.1
		c-0.1-0.1-0.3-0.3-0.6-0.3c-0.2-0.1-0.3-0.1-0.4-0.1h-0.7V1.4h9.9c2.2,0,3.8,0.5,5.4,1.6c2.5,1.8,4,4.9,4,8.3c0,6-3.9,10.6-9,10.6
		h-11.1L121.7,20.9L121.7,20.9z M130.3,21h2.2c1.9,0,3.2-1.2,3.7-3.4c0.3-1.4,0.6-3.6,0.6-5.5c0-0.5,0-0.9-0.1-2.2
		c-0.1-0.8-0.1-1.5-0.1-1.8c-0.1-0.7-0.1-1.3-0.2-1.8c-0.5-2.4-1.8-3.7-3.6-3.7h-2.5c-0.8,0-1,0.3-1,1.3v15.9
		C129.3,20.6,129.6,21,130.3,21z"/>
	<path class="st0" d="M151.6,1.2c5.3,0,8.9,4.2,8.9,10.5s-3.6,10.5-8.9,10.5c-5.3,0-8.9-4.2-8.9-10.5S146.3,1.2,151.6,1.2z
		 M147.9,11.7c0,3.4,0.1,4.4,0.3,5.7c0.4,2.2,1.6,3.4,3.5,3.4c1.9,0,3.1-1.2,3.5-3.4c0.2-1.3,0.3-2.3,0.3-5.7c0-3.5-0.1-4.4-0.3-5.7
		c-0.4-2.2-1.6-3.4-3.5-3.4c-1.9,0-3.1,1.2-3.5,3.4C147.9,7.3,147.9,8.2,147.9,11.7z"/>
	<g>
		<path class="st0" d="M49.8,12.2v4.2h8.6c0.7-1.3,1.1-2.7,1.1-4.2H49.8z"/>
		<path class="st0" d="M49.8,22c3.3-0.2,6.1-1.9,7.9-4.4h-7.9V22z"/>
		<path class="st0" d="M40.8,17.6c1.8,2.5,4.6,4.2,7.9,4.4v-4.4H40.8z"/>
		<path class="st0" d="M48.7,12.2H39c0.1,1.5,0.5,3,1.1,4.2h8.6V12.2z"/>
		<path class="st0" d="M48.7,6.8h-8.5C39.5,8.1,39,9.5,39,11.1h9.7V6.8z"/>
		<path class="st0" d="M48.7,1.4c-3.2,0.2-6,1.8-7.8,4.3h7.8V1.4z"/>
		<path class="st0" d="M57.6,5.7c-1.8-2.5-4.6-4.1-7.8-4.3v4.3H57.6z"/>
		<path class="st0" d="M49.8,11.1h9.7c-0.1-1.5-0.5-3-1.2-4.2h-8.5L49.8,11.1L49.8,11.1z"/>
	</g>
</g>
</svg>
