<?xml version="1.0" encoding="utf-8"?>
<!-- Generator: Adobe Illustrator 23.0.0, SVG Export Plug-In . SVG Version: 6.00 Build 0)  -->
<svg version="1.1" id="Capa_1" xmlns="http://www.w3.org/2000/svg" xmlns:xlink="http://www.w3.org/1999/xlink" x="0px" y="0px"
	 viewBox="0 0 106.8 23.8" style="enable-background:new 0 0 106.8 23.8;" xml:space="preserve">
<style type="text/css">
	.st0{fill:#FFFFFF;}
	.st1{fill-rule:evenodd;clip-rule:evenodd;fill:#FFFFFF;}
</style>
<g>
	<g>
		<polygon class="st0" points="27.8,22.3 29.1,21.7 29,19.8 0.8,19.8 0.8,22.8 27.8,22.8 		"/>
		<polygon class="st0" points="34.8,19.8 34.8,21.7 35.8,22.3 35.8,22.8 105.8,22.8 105.8,19.8 		"/>
	</g>
	<path class="st0" d="M14.9,0.9H0.6v0.5L2.8,2v15l-2.2,0.6v0.5h14.8l0.5-5.6l-0.5-0.1l-2.2,2.8c-0.9,1.1-1.8,1.7-3.3,1.8l-3.3,0.2
		V10h0.9c1.5,0,2.1,0.5,2.8,2.2l0.3,0.8h0.6V5.8h-0.6l-0.3,0.9C9.8,8.4,9.1,8.9,7.6,8.9H6.7V1.8l2.5,0.1C11,2,11.7,2.5,12.7,3.8
		l2.1,3l0.5-0.1L14.9,0.9L14.9,0.9z"/>
	<polygon class="st0" points="22.8,10.8 20.8,7.5 21.9,7 21.9,6.7 15.8,6.7 15.8,7 17,7.5 20.7,13 17.3,17 16,17.7 16,18.1 
		20.1,18.1 20.1,17.7 19.1,17.2 21.3,13.9 23.4,17.2 22.2,17.7 22.2,18.1 28.3,18.1 28.3,17.7 27.1,17.2 23.3,11.7 26.6,7.7 28,7 
		28,6.7 23.8,6.7 23.8,7 24.8,7.6 	"/>
	<path class="st0" d="M64.9,9.8c0-1.8-0.8-3.5-3.1-3.5c-1.4,0-2.8,0.7-4.3,2.1l-0.1-0.1l0-1.7H53V7l1.4,0.7v9.4l-1.3,0.6v0.4h5.6
		v-0.4l-1.1-0.6V8.8c0.9-0.4,1.4-0.5,2.3-0.5c1.4,0,1.8,1,1.8,2.4v6.4l-1.1,0.6v0.4h5.6v-0.4l-1.3-0.6L64.9,9.8L64.9,9.8z"/>
	<path class="st0" d="M75.4,14.5c0-2.2-1.8-3-3.4-3.6c-1.4-0.6-2.8-1.1-2.8-2.4c0-0.8,0.6-1.5,1.5-1.5c1.2,0,1.9,0.8,3.4,2.8
		l0.5-0.1l-0.1-3.1c-0.7-0.3-2.2-0.5-3.1-0.5c-2.7,0-4.7,1.6-4.7,3.6c0,2.2,1.8,3,3.4,3.7c1.4,0.6,2.8,1.1,2.8,2.3
		c0,1-0.6,1.7-1.6,1.7c-1.3,0-2.2-0.8-4.1-3.3l-0.5,0l0.1,3.4c1.2,0.5,2.4,0.7,3.9,0.7C73.1,18.3,75.4,16.9,75.4,14.5L75.4,14.5z"/>
	<path class="st1" d="M93,12.2c0-3.2-1.8-6.1-5.9-6.1c-4,0-6.2,3.1-6.2,6.1c0,3.2,1.8,6.1,5.9,6.1C90.9,18.3,93,15.2,93,12.2
		L93,12.2z M89.6,12.2c0,3.1-0.8,5.3-2.6,5.3c-1.8,0-2.6-2.1-2.6-5.3C84.4,9.1,85.2,7,87,7C88.8,7,89.6,9.1,89.6,12.2L89.6,12.2z"/>
	<path class="st1" d="M30,21.7l-1.3,0.6v0.3h6.1v-0.3l-1.6-0.6v-4c0.5,0.1,1.1,0.2,1.6,0.2c4.2,0,6.7-3,6.7-6.4c0-3.5-2-5.8-4.4-5.8
		c-1.5,0-3,0.9-3.9,1.7l-0.1-0.1l0-1.2h-4.5v0.4L30,7.2L30,21.7L30,21.7z M38.1,12.2c0,3.5-1.2,4.8-2.5,4.8c-1.1,0-1.8-0.5-2.4-1.4
		V7.8c0.6-0.2,1.2-0.2,1.7-0.2C37,7.6,38.1,9,38.1,12.2L38.1,12.2z"/>
	<polygon class="st0" points="76.7,7.7 76.7,17.1 75.3,17.7 75.3,18.1 81.3,18.1 81.3,17.7 79.9,17.1 79.9,6.7 75.3,6.7 75.3,7 	"/>
	<path class="st0" d="M104.5,9.8c0-1.8-0.8-3.5-3.1-3.5c-1.4,0-2.8,0.7-4.3,2.1L97,8.3l0-1.7h-4.4V7L94,7.7v9.4l-1.3,0.6v0.4h5.6
		v-0.4l-1.1-0.6V8.8c0.9-0.4,1.4-0.5,2.3-0.5c1.4,0,1.8,1,1.8,2.4v6.4l-1.3,0.6v0.4h5.8v-0.4l-1.3-0.6V9.8L104.5,9.8z"/>
	<path class="st0" d="M76.2,2.9c0-1.1,0.9-2,2-2c1.1,0,2,0.9,2,2s-0.9,2-2,2C77.1,4.9,76.2,4,76.2,2.9L76.2,2.9z"/>
	<polygon class="st0" points="86.9,0.9 90.5,0.9 87.9,4.9 85.8,4.9 	"/>
	<path class="st1" d="M49.3,18.1h3.3v-0.4l-1.3-0.6l0-7.4c0-2.3-1.3-3.4-3.6-3.4c-2.4,0-5.7,1.1-5.7,3.2c0,0.9,0.6,1.7,1.6,1.7
		c0.9,0,1.6-0.8,1.6-1.6c0-0.6-0.4-1.4-1.1-2c0.5-0.1,0.9-0.1,1.2-0.1c2.1,0,2.7,1,2.7,2.4v2.3c-3.8,0-6.5,1.3-6.5,3.6
		c0,1.6,1.2,2.6,3,2.6c1.4,0,2.5-0.7,3.4-1.6l0.1,0.1C48.2,17.6,48.6,18.1,49.3,18.1L49.3,18.1z M48,16.4c-0.6,0.3-1,0.5-1.5,0.5
		c-0.9,0-1.6-0.7-1.6-1.8c0-1.4,0.8-2.1,3.1-2.3V16.4L48,16.4z"/>
</g>
</svg>
