<svg id="Layer_1" data-name="Layer 1" xmlns="http://www.w3.org/2000/svg" viewBox="0 0 801.76 402.35"><defs><style>.cls-1{fill:#fff;}</style></defs><title>kia_white2</title><path class="cls-1" d="M400.91,0C179.51,0,0,90.07,0,201.17S179.51,402.35,400.91,402.35s400.88-90.12,400.88-201.18S622.31,0,400.91,0Zm0,377C205.76,377,47,298.12,47,201.17S205.76,25.36,400.91,25.36s353.91,78.87,353.91,175.81S596,377,400.91,377Z" transform="translate(-0.03)"/><path class="cls-1" d="M361.93,111h6.47a4,4,0,0,1,4,4V298.9a4.26,4.26,0,0,0,4.21,4.31H424.9a4.27,4.27,0,0,0,4.33-4.21h0V103a4.34,4.34,0,0,0-4.33-4.32h-63c-.62,0-.62.59-.62,1.06V110C361.3,110.35,361.3,111,361.93,111Z" transform="translate(-0.03)"/><path class="cls-1" d="M470.51,303.23h47.28a6.59,6.59,0,0,0,5.67-4.25L563.8,172s.46-1.77,2-1.77,1.92,1.75,1.93,1.77l40.76,127a6.56,6.56,0,0,0,5.7,4.25h47.26a3.71,3.71,0,0,0,3.12-1.5,4.51,4.51,0,0,0,.71-3.77l-65.8-196.44c-1-2.54-3.59-2.86-5.72-2.86h-75.5a1.12,1.12,0,0,0-1.08,1.06V110a1.14,1.14,0,0,0,1.08,1h5.56c2.41,0,4,1.41,4,3.52a6.9,6.9,0,0,1-.47,2.32l-60.7,181.14a4.33,4.33,0,0,0,.73,3.74A3.8,3.8,0,0,0,470.51,303.23Z" transform="translate(-0.03)"/><path class="cls-1" d="M148.8,111a4,4,0,0,1,4,4V298.9a4.24,4.24,0,0,0,4.17,4.31h47a4.3,4.3,0,0,0,4.28-4.31V221.6c0-1.69.77-2.65,2.14-2.65a3.48,3.48,0,0,1,3,2,3.13,3.13,0,0,0,.2.28l55.14,77.37c1.78,2.68,5,4.7,7.51,4.7h55.59a4.09,4.09,0,0,0,2.91-6.71L264.37,197c-.21-.3-.3-.5-.43-.72a3.19,3.19,0,0,1-.35-.88,2.64,2.64,0,0,1-.12-.66,6.2,6.2,0,0,1,.85-2.57v-.11l58.84-87.12a4.11,4.11,0,0,0,0-4.14,3.92,3.92,0,0,0-3.4-2.08H267c-2.51,0-5.75,2-7.56,4.7l-45.92,64.83c-1.43,2.13-2.83,2.24-3.1,2.24h0a2,2,0,0,1-2.14-2.17V103a4.31,4.31,0,0,0-4.25-4.37H142.32a1.11,1.11,0,0,0-1.07,1.06v10.22a1.11,1.11,0,0,0,1.07,1h6.48Z" transform="translate(-0.03)"/></svg>