<?xml version="1.0" encoding="utf-8"?>
<!-- Generator: Adobe Illustrator 23.0.0, SVG Export Plug-In . SVG Version: 6.00 Build 0)  -->
<svg version="1.1" id="Capa_1" xmlns="http://www.w3.org/2000/svg" xmlns:xlink="http://www.w3.org/1999/xlink" x="0px" y="0px"
	 viewBox="0 0 82.5 21.9" style="enable-background:new 0 0 82.5 21.9;" xml:space="preserve">
<style type="text/css">
	.st0{fill-rule:evenodd;clip-rule:evenodd;fill:#FFFFFF;}
</style>
<g>
	<polygon class="st0" points="10.4,18.5 6.9,9.5 6.9,16.8 8.2,16.8 8.2,21.4 0.5,21.4 0.5,16.8 1.7,16.8 1.7,5.2 0.4,5.2 0.4,0.6 
		7.8,0.6 10.5,7.7 13.2,0.6 20.5,0.6 20.5,5.2 19.2,5.2 19.2,16.8 20.5,16.8 20.5,21.4 12.7,21.4 12.7,16.8 14,16.8 14,9.5 	"/>
	<path class="st0" d="M33,0.6l2.9,16.2h0.9v4.5h-7.1v-4.5h0.9l0-1.7h-3.3l0,1.7h0.9v4.5h-7.1v-4.5H22l2.9-16.2H33z M30.1,12.4
		L28.9,6l-1.1,6.4H30.1z"/>
	<path class="st0" d="M60.4,5.2v4h5.1V2.8l-2.4-2.2h-7.5l-2.4,2.2v16.3l2.4,2.2l7.5,0l2.4-2.2l0-6.4c0,0-5.1,0-5.1,0v4h-1.7V5.2
		H60.4z"/>
	<path class="st0" d="M45.9,21.4v-8.2l-1.7,0l0,3.7h0.9v4.5h-7.7v-4.5h1.2V5.2h-1.2V0.6H49l2.4,2.2l0,6.5l-1.9,1.7l1.9,1.7v4h1.2
		l0,4.5L45.9,21.4z M44.2,5.2v4.8l1.7,0V5.2L44.2,5.2z"/>
	<path class="st0" d="M78.1,0.6L81,16.8h0.9v4.5h-7.1v-4.5h0.9l0-1.7h-3.3l0,1.7h0.9v4.5h-7.1v-4.5h0.9L70,0.6H78.1z M75.2,12.4
		L74.1,6l-1.1,6.4H75.2z"/>
</g>
</svg>
