<?xml version="1.0" encoding="utf-8"?>
<!-- Generator: Adobe Illustrator 23.0.0, SVG Export Plug-In . SVG Version: 6.00 Build 0)  -->
<svg version="1.1" id="Layer_1" xmlns="http://www.w3.org/2000/svg" xmlns:xlink="http://www.w3.org/1999/xlink" x="0px" y="0px"
	 viewBox="0 0 195 199" style="enable-background:new 0 0 195 199;" xml:space="preserve">
<style type="text/css">
	.st0{fill-rule:evenodd;clip-rule:evenodd;fill:#EAEAE4;}
</style>
<g>
	<path class="st0" d="M42,122.4c-5-3-6.5-6.9-14.1-10c-7.5-9.8-10.4-22.1-10.4-34.3c0-8.9,1.6-17.9,4-25.9l0,0l7.6,15.1l0,0
		c-0.5,3.3-0.7,7-0.7,10.8c0,49.9,33.1,60,68.1,59.9c34.9,0.1,68.1-10,68.1-59.9c0-5.1-0.3-9.8-1-14.1l0,0l5.4-11.1l0,0
		c2.9,7.1,4.4,16.2,4.2,25.3c-0.3,14.8-5.1,29.7-16.2,36.7l0,0l-1.8,2.7l-1.9,2.4l-2,2.3l-2.2,2.1l-2.3,1.9l-2.4,1.8l-2.5,1.6
		l-2.6,1.5l-2.7,1.3l-2.8,1.2l-2.8,1.1l-2.9,0.9l-3,0.8l-3,0.7l-3.1,0.6l-3.1,0.5l-3.2,0.4l-3.2,0.3l-3.2,0.2l-3.3,0.2l-3.3,0.1
		h-6.6l-3.3-0.1l-3.3-0.2l-3.2-0.2l-3.2-0.3l-3.2-0.4l-3.1-0.5l-3.1-0.6l-3-0.7l-3-0.8l-2.9-0.9l-2.8-1.1l-2.8-1.2l-2.7-1.3
		l-2.6-1.5l-2.5-1.6l-2.4-1.8l-2.3-1.9L42,122.4L42,122.4L42,122.4L42,122.4z M21.6,32.5l-1-1l0,0C11.6,42.3,6,57.3,6,78.1
		c0,62.9,51.4,73.2,90.5,73.2c39.1,0,90.5-10.2,90.5-73.2c0-20.8-5.6-35.8-14.5-46.6l0,0l-1,1l0,0c-0.2,5.5-1.1,11.2-1.9,16.6
		c3.9,8.4,5.8,18.4,6,29.1c0.6,31.3-15.3,64.1-79,66.3C56.5,144,31.3,131.7,21,105.9c-6.8-4.3-10.1-12.3-13.3-20l0,0l-0.2-2.1
		l-0.1-5.7l0.1-5.7L8,67L8.7,62l1-4.8l1.2-4.5l1.4-4.2l1.7-4l1.9-3.7l2.1-3.5l1.9-2.7l0,0c0.7,5.3,1.7,12.3,3.3,13.7
		c20.3,17,55.9,14.8,73.1,49.1c18.7-38,51.6-33.2,71.9-50.3l0,0l1.9-16.3l0,0C146.4,56.4,114.3,47.7,96.3,86
		C76.9,48.4,45.3,57.7,21.6,32.5L21.6,32.5L21.6,32.5L21.6,32.5L21.6,32.5z M37.4,41.6c12.2-18.8,35.2-23.5,59.1-23.4
		c23.5-0.1,46.1,4.4,58.5,22.7l0,0l14.6-11.1l0,0l0.9-0.7l0,0c-18.4-20-48.7-24.2-74-24.2c-25.8,0-56.9,4.4-75.1,25.5l0,0l0.3,0.3
		l0,0l0.5,0.4l0.3,0.2l0,0l0,0c3.9,3.8,8.3,7.9,12.7,10.2C35.9,41.8,36.7,41.9,37.4,41.6L37.4,41.6L37.4,41.6L37.4,41.6L37.4,41.6z
		 M168.3,28.9l-6.6,4.1l0,0c-19.5-17.2-40.4-21.4-65.2-21.2c-25.1-0.2-47,4.3-66.3,22.6l0,0l-6.8-4.1l1.9-2l2.8-2.6l2.9-2.4l3.1-2.2
		l3.2-2l3.3-1.8l3.4-1.7l3.5-1.5l3.6-1.3l3.7-1.2l3.7-1l3.8-0.9l3.8-0.8L70,8.2l3.8-0.5l3.9-0.4l3.8-0.3l3.8-0.3l3.8-0.2l3.7-0.1
		l3.7,0l3.7,0l3.7,0.1l3.8,0.2l3.8,0.3l3.8,0.3l3.9,0.4l3.9,0.5l3.8,0.7l3.8,0.8l3.8,0.9l3.7,1l3.7,1.2l3.6,1.3l3.5,1.5l3.4,1.7
		l3.3,1.8l3.2,2l3.1,2.2l2.9,2.4l2.8,2.6L168.3,28.9L168.3,28.9L168.3,28.9L168.3,28.9z M96.3,109C88,91,78.8,82.9,64.8,77.1l0,0
		L29.9,65.4L25.1,52l0,0c8.6,6.6,21.3,11.1,33.3,15.7c18.6,7.1,28.7,16.2,37.9,34.7l0,0V109L96.3,109L96.3,109L96.3,109z M96.3,109
		c8.4-18,17.5-27.2,31.5-33l0,0l34.6-12.4l4.8-12.9l0,0c-8.6,6.6-22.2,11.6-34.3,16.3c-18.6,7.1-27.4,16.9-36.6,35.4l0,0V109
		L96.3,109L96.3,109L96.3,109z M157.2,52.5l2.1-1.1l2.1-1.2l2-1.3l1.9-1.4l1.4-1.1l1.4-11.7l-1.7,1.6l-2.4,2l-2.4,1.8l-2.4,1.7
		l-2.5,1.5l-2.5,1.4l-2.5,1.3l-2.5,1.2l-5.1,2.3l0,0c-4.2,1.8-8.4,3.5-12.5,5.3l0,0l-4.9,2.3l-2.4,1.2l-2.2,1.2l0,0
		c-5.7,4.9-8.6,9.6-9.8,14.6l0,0l1.6-1.3l2.4-1.8l2.4-1.6l2.4-1.5l2.5-1.4l2.5-1.3l2.5-1.2l2.5-1.1l5-2l0,0
		c4.8-1.9,9.7-3.6,14.4-5.5l0,0l2.3-1l2.2-1L157.2,52.5L157.2,52.5L157.2,52.5L157.2,52.5z M115.4,64l-0.3,0.2l-2.2,1.7l-2.1,1.9
		l-2.1,2.1l-0.6,0.6l0,0c-2,3.8-2.9,7.2-2.8,10.5l0,0l1.7-1.9l2.2-2.2l1-0.9l0,0C110.9,72,112.6,68.1,115.4,64L115.4,64L115.4,64
		L115.4,64L115.4,64z M65,58.1L65,58.1L60,55.9l0,0c-4.2-1.7-8.4-3.3-12.5-5l0,0l-5.1-2.2l-2.5-1.2l-2.5-1.3l-2.5-1.4l-2.5-1.5
		L30,41.7l-2.4-1.8l-2.4-2l-2.3-2.1l-1.6-1.6l0,0c0.3,2,0.6,4.1,0.9,6.1l0,0l0.4,2.1l0.4,1.9l0.4,1.5l0.4,1l0.4,0.5l1.8,1.4l2,1.4
		l2.1,1.3l2.1,1.2l2.2,1.2l2.3,1.1l2.3,1.1l4.8,2l0,0c5,2,10.1,3.9,15.2,6l0,0l5.1,2.2l2.6,1.2l2.5,1.3l2.5,1.4l2.5,1.5l1.3,0.9l0,0
		C72.6,67.5,68.8,62.8,65,58.1L65,58.1L65,58.1L65,58.1L65,58.1z"/>
	<path class="st0" d="M75.6,183.5H65.5l-0.4,0l-0.4-0.1l-0.4-0.1L64,183l-0.3-0.3l-0.2-0.3l-0.2-0.3l-0.1-0.4l0-0.4l0-0.4l0.1-0.4
		l0.2-0.3l0.2-0.3l0.3-0.3l0.3-0.2l0.4-0.1l0.4-0.1l0.4,0l10.1,0V183.5L75.6,183.5L75.6,183.5L75.6,183.5z M111.1,160.1H88.2v9.3
		h11.6L111.1,160.1L111.1,160.1L111.1,160.1L111.1,160.1z M95.6,192h22.9v-9.5h-10.6L95.6,192L95.6,192L95.6,192L95.6,192z
		 M131.4,182.6v-13h8l0.7,0l0.7,0.1l0.7,0.1l0.7,0.1l0.4,0.2l0.4,0.2l0.4,0.3l0.3,0.3l0.3,0.5l0.2,0.5l0.2,0.6l0.1,0.7l0.1,0.7
		l0.1,0.7l0,0.8v0.8l0,0.8l-0.1,0.7l-0.1,0.7l-0.1,0.7l-0.2,0.7l-0.2,0.6l-0.2,0.5l-0.3,0.4l-0.3,0.3l-0.3,0.3l-0.4,0.2l-0.4,0.2
		l-0.5,0.1l-0.5,0.1l-0.5,0.1l-0.6,0l-0.6,0L131.4,182.6L131.4,182.6L131.4,182.6L131.4,182.6z M177.5,179.2v4.2h-9.9l-0.4,0
		l-0.4-0.1l-0.4-0.2l-0.3-0.3l-0.3-0.3l-0.2-0.4l-0.1-0.4l0-0.4l0-0.4l0.1-0.4l0.2-0.4l0.3-0.3l0.4-0.3l0.4-0.2l0.4-0.1l0.4,0H177.5
		L177.5,179.2L177.5,179.2L177.5,179.2z M120.6,192H145l0.9-0.1l0.9-0.1l0.9-0.2l0.9-0.3l0.8-0.4l0.8-0.4l0.8-0.5l0.7-0.6l0.7-0.7
		l0.6-0.7l0.4-0.7l0.4-0.7l0.3-0.7l0.3-0.7l0.2-0.8l0.2,0.7l0.2,0.7l0.3,0.6l0.3,0.6l0.4,0.6l0.4,0.6l0.4,0.5l0.5,0.5l0.5,0.5
		l0.5,0.4l0.6,0.4l0.6,0.4l0.6,0.3l0.7,0.3l0.7,0.2l0.7,0.2l0.7,0.1l0.7,0.1l0.7,0h23.9v-21.6l0-0.7l-0.1-0.7l-0.1-0.7l-0.2-0.7
		l-0.2-0.7l-0.3-0.7l-0.3-0.7l-0.4-0.6l-0.4-0.6l-0.5-0.6l-0.5-0.5l-0.5-0.5l-0.6-0.5l-0.6-0.4l-0.6-0.4l-0.7-0.3l-0.7-0.3l-0.7-0.2
		l-0.7-0.2l-0.7-0.1l-0.7-0.1h-22v8.6h17.8l0.5,0l0.4,0.2l0.4,0.3l0.2,0.4l0.1,0.5l-0.1,0.5l-0.2,0.4l-0.3,0.3l-0.4,0.2l-0.5,0.1
		h-10.1l-0.7,0l-0.7,0.1l-0.7,0.1l-0.7,0.2l-0.7,0.2l-0.7,0.3l-0.7,0.3l-0.6,0.4l-0.6,0.4l-0.6,0.5l-0.5,0.5l-0.5,0.5l-0.4,0.6
		l-0.4,0.6l-0.1-2.5l-0.1-0.7l-0.1-0.8l-0.1-1l-0.1-0.9l-0.1-0.9l-0.2-0.9l-0.2-0.8l-0.2-0.8l-0.3-0.7l-0.3-0.7l-0.4-0.7l-0.4-0.6
		l-0.5-0.6l-0.5-0.5l-0.6-0.5l-0.6-0.5l-0.6-0.4l-0.6-0.4l-0.7-0.3l-0.7-0.3l-0.7-0.3l-0.7-0.2l-0.7-0.2l-0.8-0.1h-0.8h-29.2
		l-29.1,23.1v-13l0-0.8l-0.1-0.8l-0.2-0.8l-0.2-0.8l-0.3-0.8l-0.4-0.7l-0.4-0.7l-0.5-0.7l-0.5-0.6l-0.6-0.6l-0.6-0.5l-0.7-0.5
		l-0.7-0.4l-0.7-0.4l-0.8-0.3l-0.8-0.3l-0.8-0.2l-0.8-0.1l-0.8-0.1l-0.8,0h-21v8.8h19.4l0.3,0l0.3,0.1l0.3,0.1l0.2,0.2l0.2,0.2
		l0.1,0.3l0.1,0.3l0,0.3l0,0.3l-0.1,0.3l-0.1,0.3l-0.2,0.2l-0.2,0.2l-0.3,0.1l-0.3,0.1l-0.3,0l-11.7,0l-0.8,0l-0.8,0.1l-0.8,0.2
		l-0.8,0.2l-0.8,0.3l-0.7,0.4l-0.7,0.4l-0.7,0.5l-0.6,0.5l-0.6,0.6l-0.5,0.6l-0.5,0.7l-0.4,0.7l-0.4,0.7v-6.7l0-1.2l-0.2-1.2
		l-0.3-1.1l-0.4-1.1l-0.5-1.1l-0.7-1l-0.8-0.9l-0.9-0.8l-1-0.7l-1-0.6l-1.1-0.5l-1.1-0.3l-1.2-0.2l-1.2-0.1H4.8V192h10.8v-22.2h7.9
		V192H34v-22.2h5.1l0.5,0l0.5,0.1l0.5,0.2l0.4,0.3l0.3,0.4l0.3,0.4l0.2,0.5l0.1,0.5l0,0.5V192h11v-5.6l0.4,0.7l0.4,0.7l0.5,0.7
		l0.5,0.6l0.6,0.6l0.6,0.5l0.7,0.5l0.7,0.4l0.7,0.3l0.8,0.3l0.8,0.2l0.8,0.1l0.8,0.1l0.8,0l28.9,0l29.7-23.5V192L120.6,192
		L120.6,192L120.6,192z"/>
</g>
</svg>
