<svg enable-background="new 0 0 556.7 407.6" viewBox="0 0 556.7 407.6" xmlns="http://www.w3.org/2000/svg"><g fill="#fff"><path d="m437.3 175.3c0 1.7 1.3 3 3 3h26c1.7 0 3-1.3 3-3v-56h56c1.7 0 3-1.3 3-3v-26c0-1.7-1.3-3-3-3h-88z" opacity=".65"/><path d="m469.3 31.3c0-1.7-1.3-3-3-3h-26c-1.7 0-3 1.3-3 3v56h-56c-1.7 0-3 1.3-3 3v26c0 1.7 1.3 3 3 3h88z"/><path d="m90.4 56.6c-15.3.2-43.5 7.7-56.4 60.4-5.6 22.9-7.8 46.9-3 75.3 4.4 26.3 12.3 48.9 17.6 61.4 1.8 4.3 4.7 8.8 6.8 11.6 6.3 7.9 16.7 7.4 21.1 5.3 4.8-2.4 10.3-8.1 8.3-21.1-1-6.3-3.7-15.5-5.3-20.6-4.8-15.7-11.2-34.6-11.7-48.1-.7-18 6.4-20.4 11.1-21.4 7.9-1.7 14.6 7 20.9 17.9 7.5 13 20.5 36.1 31 53.8 9.5 15.9 27.1 33 55.3 31.8 28.8-1.2 50-12.2 60.9-46.7 8.2-25.8 13.7-45.2 22.7-64.9 10.3-22.7 24.1-34.9 35.6-31.2 10.8 3.4 13.4 14 13.6 29.4.1 13.7-1.5 28.7-2.7 39.8-.4 4-1.3 12.1-.9 16.6.7 8.8 4.5 17.6 14.4 19 10.6 1.5 19.1-6.9 22.4-17.2 1.3-4 2.5-10.2 3.1-14.6 3.1-22.1 3.9-36.9 2.5-59.5-1.6-26.4-6.8-50.5-15.8-71.3-8.6-19.9-22.5-32.7-40.3-33.8-19.7-1.2-42.2 11.8-54.1 37.1-10.9 23.3-19.6 47.3-24.9 59.5-5.4 12.4-13.3 20-25.4 21.3-14.8 1.6-27.6-9.2-37-24.6-8.2-13.4-24.4-38.9-33-47.5-8.2-8-17.5-18.1-36.8-17.7"/><path d="m511.9 310.3h-7.6c-11 0-19.5 3.8-23.2 11.7-1.6 3.4-2.1 8-2.1 13v41.7c0 .9.5 1.3 1.4 1.3h11.4c1 0 1.4-.4 1.4-1.3v-34.9c0-4.9.1-8.5.3-10.7.7-5.8 4.2-8.5 12.4-8.5h6.1c1 0 1.4-.5 1.4-1.4v-9.4c-.1-1-.5-1.5-1.5-1.5"/><path d="m453.8 313c-3.8-1.6-9.6-2.7-17-2.7h-.9c-4.5 0-10.8.6-16.7 1.6-1 .2-1.4.7-1.4 1.9v8.5c0 1.1.5 1.4 1.7 1.3 5.2-.8 10.6-1.3 14.8-1.3h.6c5.9 0 10.6.5 13.5 2.5 2.8 1.9 4.3 4.8 4.3 11v1.8c-4.3-.9-9.5-1.5-14.3-1.5h-1.3c-7.9 0-15.4 1.9-20.1 6.3-3.7 3.4-6.1 8.5-6.1 15.1v.6c0 13.2 9.1 21.3 27.6 21.3h3.3c7.3 0 14.2-2.2 18.4-5.6 4.8-3.9 6.6-9.8 6.6-19.1v-19c0-13.3-5.1-19.3-13-22.7m-1.2 41.1c0 5-.2 7.9-2 10-1.9 2.2-5.3 3.2-9.9 3.2h-2.2c-8.5 0-13.5-3.4-13.5-10 0-3 1.2-5.7 3-7.2 2.2-1.9 5.3-2.8 10.8-2.8h1.2c4.1 0 8.8.4 12.7 1.4v5.4z"/><path d="m400.4 365.8h-1.5c-4.5 0-7.3-1.1-9-2.9-2.3-2.4-2.7-6.2-2.7-10.8v-28.8h12.5c.9 0 1.4-.4 1.4-1.3v-9.2c0-.9-.5-1.3-1.4-1.3h-12.5v-11.9c0-.9-.5-1.3-1.4-1.3h-11.4c-.9 0-1.4.4-1.4 1.3v53.2c0 9.3 1.8 15.2 5.9 19.2 3.8 3.8 9.8 5.9 18.5 5.9h3c1 0 1.5-.5 1.5-1.4v-9.5c0-.7-.6-1.2-1.5-1.2"/><path d="m343.1 339c-3.6-1.3-6.5-2.4-9-3.3-5.7-2.1-7.3-4-7.3-6.9 0-4.8 4.7-6.7 12.3-6.7h.6c4.4 0 9.7.6 16.2 1.8 1.2.2 1.9 0 1.9-1.3v-8.7c0-1.1-.3-1.5-1.5-1.7-4.2-.9-11.8-1.8-16.1-1.8h-1c-8.9 0-15.5 1.7-19.9 5.5-3.6 3.1-6 7.8-6 13.4v.4c0 5.2 1.8 9.4 4.9 12.3 2.9 2.7 6.8 4.4 12 6.3 3.1 1.1 5.6 2.1 8.7 3.2 6.5 2.3 9.3 4.1 9.3 8.1 0 5.1-4.3 7.9-14.2 7.9h-.3c-5.5 0-11.9-1.1-17.5-2.9-1.2-.4-1.8.1-1.8 1.2v8.5c0 1.1.2 1.7 1.4 2.1 5.3 1.8 12.7 2.9 18.7 2.9h.5c17.5 0 26.9-7.8 26.9-20.3v-.2c0-4.8-1.6-9.2-4.6-12.1-2.9-3-7.4-5.2-14.2-7.7"/><path d="m298.4 311.6h-11.4c-.9 0-1.4.4-1.4 1.3v63.8c0 .9.4 1.3 1.4 1.3h11.4c1 0 1.4-.4 1.4-1.3v-63.8c0-.9-.4-1.3-1.4-1.3"/><path d="m272.3 311.6h-11.5c-1.3 0-1.7.4-1.8 1.6-.5 8.5-2.3 18.3-4.9 27.1-2.7 9.1-6.1 17.7-9.4 24.2-3.3-6.4-6.7-15.1-9.4-24.2-2.6-8.8-4.5-18.8-5-27.3-.1-1.2-.7-1.5-1.9-1.5h-11.6c-1.2 0-1.6.6-1.5 1.8 1.6 22.8 8.7 40.5 21.1 63.5.4.8 1.1 1.1 2.2 1.1h12.3c1.1 0 1.5-.3 2-1.2 8-15 20.2-40.7 21.1-63.9-.1-.8-.5-1.2-1.7-1.2"/><path d="m205.5 326.4c-3.5-11.5-12.6-16.1-27.4-16.1h-1.8c-14.8 0-23.9 4.6-27.4 16.1-1.4 4.5-2.1 9.7-2.1 18.3s.8 13.8 2.1 18.3c3.5 11.5 12.6 16.1 27.4 16.1h1.8c14.8 0 23.9-4.6 27.4-16.1 1.4-4.5 2.1-9.7 2.1-18.3.1-8.5-.7-13.8-2.1-18.3m-12.8 28c-1.1 10.8-6.5 12.4-15.3 12.4h-.4c-8.7 0-14.2-1.7-15.3-12.4-.4-3.3-.6-5.9-.6-9.7s.3-6.4.6-9.7c1.1-10.8 6.5-12.5 15.3-12.5h.4c8.7 0 14.2 1.7 15.3 12.5.3 3.3.6 5.9.6 9.7s-.2 6.5-.6 9.7"/><path d="m108.6 310.3h-3.4c-9.9 0-16.5 2.6-19.7 6.5h-.1c-3.2-3.9-10.2-6.5-20.1-6.5h-3.5c-11.2 0-20.3 3.9-24 11.8-1.6 3.4-2.1 8-2.1 13v41.4c0 .9.5 1.5 1.5 1.5h11.2c.9 0 1.5-.6 1.5-1.5v-34.5c0-4.9.1-8.5.4-10.7.6-5.8 4.9-8.6 13.2-8.6h.9c8.2 0 12.7 2.8 13.3 8.6.3 2.2.4 5.8.4 10.7v34.5c0 .9.5 1.5 1.5 1.5h11.3c.9 0 1.4-.7 1.4-1.6v-34.4c0-4.9.1-8.5.4-10.7.6-5.8 5.1-8.6 13.3-8.6h.9c8.2 0 12.5 2.8 13.1 8.6.3 2.2.4 5.8.4 10.7v34.5c0 .9.6 1.5 1.5 1.5h11.3c.9 0 1.4-.7 1.4-1.6v-41.3c0-5-.5-9.5-2.1-13-3.6-7.9-12.7-11.8-23.9-11.8"/></g></svg>