<?xml version="1.0" encoding="utf-8"?>
<!-- Generator: Adobe Illustrator 23.0.1, SVG Export Plug-In . SVG Version: 6.00 Build 0)  -->
<svg version="1.1" id="Capa_1" xmlns="http://www.w3.org/2000/svg" xmlns:xlink="http://www.w3.org/1999/xlink" x="0px" y="0px"
	 viewBox="0 0 625.7 245.2" style="enable-background:new 0 0 625.7 245.2;" xml:space="preserve">
<style type="text/css">
	.st0{fill:#FFFFFF;}
</style>
<rect width="625.7" height="245.2"/>
<g>
	<polygon class="st0" points="111.9,116.4 111.9,86.3 98.1,106.3 97.9,106.3 84.2,86.3 84.2,116.4 81.7,116.4 81.7,81.7 84.2,81.7 
		98.1,102.2 112,81.7 114.4,81.7 114.4,116.4 111.9,116.4 	"/>
	<path class="st0" d="M138.4,117c-8.3,0-14.2-5.3-14.2-15V81.7h2.6v20c0,8.2,4.4,12.9,11.7,12.9c7,0,11.5-4.2,11.5-12.6V81.7h2.6v20
		C152.6,111.7,146.9,117,138.4,117L138.4,117z"/>
	<path class="st0" d="M173.9,116.9c-5.5,0-9.8-1.8-14-5.5l1.7-1.9c3.8,3.5,7.3,5.2,12.4,5.2c5.2,0,8.8-2.9,8.8-6.9v-0.1
		c0-3.7-1.9-5.8-9.8-7.4c-8.3-1.7-11.7-4.5-11.7-9.8v-0.1c0-5.1,4.7-9.1,11.1-9.1c5.1,0,8.4,1.4,11.9,4.2l-1.6,2
		c-3.3-2.8-6.5-3.9-10.4-3.9c-5.1,0-8.5,2.9-8.5,6.5v0.1c0,3.7,1.9,5.9,10.1,7.6c8,1.6,11.4,4.5,11.4,9.6v0.1
		C185.4,113.1,180.6,116.9,173.9,116.9L173.9,116.9z"/>
	<polygon class="st0" points="193.5,116.4 193.5,81.7 218.1,81.7 218.1,84.1 196,84.1 196,97.7 215.9,97.7 215.9,100.1 196,100.1 
		196,114 218.4,114 218.4,116.4 193.5,116.4 	"/>
	<path class="st0" d="M239.8,117.4c-10.5,0-17.4-8.4-17.4-17.8v-0.1c0-9.4,7-17.9,17.5-17.9c10.5,0,17.4,8.4,17.4,17.8
		c0,0,0,0,0,0.1C257.3,108.9,250.3,117.4,239.8,117.4L239.8,117.4z M254.6,99.4c0-8.6-6.2-15.6-14.8-15.6c-8.6,0-14.7,6.9-14.7,15.5
		v0.1c0,8.6,6.2,15.6,14.8,15.6c8.6,0,14.7-6.9,14.7-15.5V99.4L254.6,99.4z"/>
	<polygon class="st0" points="308.2,116.4 283.8,85.6 283.8,116.4 281.3,116.4 281.3,81.7 283.7,81.7 307.7,111.9 307.7,81.7 
		310.2,81.7 310.2,116.4 308.2,116.4 	"/>
	<path class="st0" d="M348.6,116.4l-4.4-9.7h-20.5l-4.4,9.7h-2.7l16.2-34.9h2.5l16.2,34.9H348.6L348.6,116.4z M334,84.3l-9.2,20.1
		h18.3L334,84.3L334,84.3z"/>
	<path class="st0" d="M371.5,117c-9.9,0-17.3-7.9-17.3-17.8v-0.1c0-9.8,7.3-17.9,17.4-17.9c6.2,0,9.9,2.3,13.5,5.6l-1.8,1.9
		c-3-2.9-6.5-5.1-11.7-5.1c-8.3,0-14.6,6.8-14.6,15.5v0.1c0,8.8,6.4,15.6,14.7,15.6c5,0,8.4-1.9,11.9-5.4l1.7,1.7
		C381.6,114.6,377.7,117,371.5,117L371.5,117z"/>
	<polygon class="st0" points="392.9,81.7 395.5,81.7 395.5,116.4 392.9,116.4 392.9,81.7 	"/>
	<path class="st0" d="M420.1,117c-10.5,0-17.4-8.4-17.4-17.8v-0.1c0-9.4,7-17.9,17.5-17.9c10.5,0,17.4,8.4,17.4,17.8c0,0,0,0,0,0.1
		C437.6,108.5,430.6,117,420.1,117L420.1,117z M434.9,99.1c0-8.6-6.2-15.6-14.8-15.6c-8.6,0-14.7,6.9-14.7,15.5v0.1
		c0,8.6,6.2,15.6,14.8,15.6c8.6,0,14.7-6.9,14.7-15.5V99.1L434.9,99.1z"/>
	<polygon class="st0" points="471.8,116.4 447.3,85.6 447.3,116.4 444.9,116.4 444.9,81.7 447.3,81.7 471.2,111.9 471.2,81.7 
		473.7,81.7 473.7,116.4 471.8,116.4 	"/>
	<path class="st0" d="M511.9,116.4l-4.4-9.7H487l-4.4,9.7h-2.7l16.2-34.9h2.5l16.2,34.9H511.9L511.9,116.4z M497.2,84.3l-9.2,20.1
		h18.3L497.2,84.3L497.2,84.3z"/>
	<polygon class="st0" points="521.1,116.4 521.1,81.7 523.6,81.7 523.6,114 544,114 544,116.4 521.1,116.4 	"/>
	<path class="st0" d="M93.3,163.5H81.7v-34.7h11.5c10.9,0,18.4,7.5,18.4,17.2v0.1C111.7,155.9,104.2,163.5,93.3,163.5L93.3,163.5z
		 M109,146.2c0-8.2-6.1-15-15.8-15h-9v30h9C102.9,161.1,109,154.5,109,146.2L109,146.2L109,146.2z"/>
	<polygon class="st0" points="118.9,163.5 118.9,128.8 143.6,128.8 143.6,131.2 121.5,131.2 121.5,144.8 141.4,144.8 141.4,147.2 
		121.5,147.2 121.5,161.1 143.9,161.1 143.9,163.5 118.9,163.5 	"/>
	<polygon class="st0" points="151.6,163.5 151.6,128.8 154.1,128.8 154.1,161.1 174.5,161.1 174.5,163.5 151.6,163.5 	"/>
	<path class="st0" d="M206.5,152.9h-5.9v10.6h-7.8v-35.3h14.4c8.4,0,13.5,5,13.5,12.2v0.1C220.8,148.6,214.5,152.9,206.5,152.9
		L206.5,152.9z M212.9,140.5c0-3.5-2.4-5.3-6.3-5.3h-6v10.8h6.1c3.9,0,6.2-2.3,6.2-5.3V140.5L212.9,140.5z"/>
	<path class="st0" d="M250.6,163.5l-7.6-11.3H237v11.3h-7.8v-35.3h16.2c8.3,0,13.3,4.4,13.3,11.7v0.1c0,5.7-3.1,9.3-7.6,11l8.6,12.6
		H250.6L250.6,163.5z M250.8,140.2c0-3.3-2.3-5-6.1-5H237v10.1h7.9C248.6,145.3,250.8,143.3,250.8,140.2L250.8,140.2L250.8,140.2z"
		/>
	<path class="st0" d="M293.4,163.5l-3.2-7.9h-15l-3.2,7.9h-7.9l15.2-35.6h7.2l15.2,35.6H293.4L293.4,163.5z M282.7,137.2l-4.7,11.5
		h9.4L282.7,137.2L282.7,137.2z"/>
	<path class="st0" d="M321.7,163.5h-13.8v-35.3h13.8c11.1,0,18.8,7.6,18.8,17.6v0.1C340.5,155.7,332.8,163.5,321.7,163.5
		L321.7,163.5z M332.3,145.8c0-6.3-4.3-10.6-10.7-10.6h-6v21.3h6C328,156.4,332.3,152.1,332.3,145.8L332.3,145.8L332.3,145.8z"/>
	<path class="st0" d="M365.2,164.1c-10.9,0-18.7-8.1-18.7-18.2v-0.1c0-10.1,7.9-18.3,18.8-18.3c10.9,0,18.7,8.1,18.7,18.2v0.1
		C384,155.8,376.1,164.1,365.2,164.1L365.2,164.1z M375.9,145.8c0-6.1-4.4-11.1-10.7-11.1c-6.3,0-10.6,4.9-10.6,11v0.1
		c0,6.1,4.5,11.1,10.7,11.1C371.6,156.9,375.9,151.9,375.9,145.8L375.9,145.8L375.9,145.8z"/>
</g>
</svg>
